# xmcd
#
# Track frame offsets: 
#        150
#        13517
#        28550
#        43072
#        56735
#        69622
#        83400
#        95657
#        109312
#        123820
#        138137
#        152052
#        166410
#        178355
#        191117
#        202282
#        215025
#        229245
#        242137
#        252842
#        263932
#        275472
#        289600
#
# Disc length: 4040 seconds
#
# Revision: 2
# Processed by: cddbd v1.5.2PL0 Copyright (c) Steve Scherf et al.
# Submitted via: ExactAudioCopy v1.3
#
DISCID=5a0fc617
DTITLE=Sleepy John Estes - Someday Baby: The Essential Recordings Of S
DTITLE=leepy John Estes
DYEAR=1996
DGENRE=Blues
TTITLE0=The Girl I Love, She's Got Long Curly Hair
TTITLE1=Broken Hearted, Ragged And Dirty Too
TTITLE2=Divin' Duck Blues
TTITLE3=Milk Cow Blues
TTITLE4=Poor John Blues
TTITLE5=Stack O' Dollars
TTITLE6=Stop That Thing
TTITLE7=Someday Baby Blues
TTITLE8=Married Woman Blues
TTITLE9=Drop Down Mama
TTITLE10=I Ain't Gonna Be Worried No More
TTITLE11=Floating Bridge
TTITLE12=Jack And Jill Blues
TTITLE13=Everybody Oughta Make A Change
TTITLE14=Liquor Store Blues
TTITLE15=New Someday Baby
TTITLE16=Brownsville Blues
TTITLE17=Special Agent
TTITLE18=Time Is Drawing Near
TTITLE19=Tell Me How About It
TTITLE20=You Shouldn't Do That
TTITLE21=Lawyer Clark Blues
TTITLE22=Working Man Blues
EXTD=
EXTT0=
EXTT1=
EXTT2=
EXTT3=
EXTT4=
EXTT5=
EXTT6=
EXTT7=
EXTT8=
EXTT9=
EXTT10=
EXTT11=
EXTT12=
EXTT13=
EXTT14=
EXTT15=
EXTT16=
EXTT17=
EXTT18=
EXTT19=
EXTT20=
EXTT21=
EXTT22=
PLAYORDER=
